<svg width="174" height="67" viewBox="0 0 174 67" fill="none" xmlns="http://www.w3.org/2000/svg">
<g clip-path="url(#clip0_28_4550)">
<path d="M38.2493 16.6166V8.64826C38.2493 7.76816 37.5359 7.05459 36.6557 7.05459H35.062V2.2736C35.062 1.39349 34.3485 0.67993 33.4683 0.67993C31.2121 0.67993 27.7568 0.507017 23.7007 2.93696C21.1794 2.18644 19.3962 2.2736 17.5317 2.2736C16.6515 2.2736 15.938 2.98716 15.938 3.86726V7.05459H14.3443C13.4641 7.05459 12.7507 7.76816 12.7507 8.64826V16.6166C12.7507 23.107 17.6258 28.4798 23.9063 29.2665V50.0836C23.9063 50.9637 24.6198 51.6772 25.5 51.6772C26.3802 51.6772 27.0937 50.9637 27.0937 50.0836V44.5057H29.4842C34.3173 44.5057 38.2493 40.5737 38.2493 35.7406V33.3501C38.2493 32.47 37.5359 31.7564 36.6557 31.7564H32.6715C30.5544 31.7564 28.6102 32.5109 27.0937 33.7651V29.2657C33.3648 28.4891 38.2493 23.1429 38.2493 16.6166ZM35.062 16.6166C35.062 19.4528 33.8077 22.0144 31.8253 23.7708C31.8565 23.5151 31.8747 23.2553 31.8747 22.9913C31.8747 18.9554 30.3659 15.2659 27.8837 12.455C29.9881 11.0191 32.483 10.2419 35.062 10.2419V16.6166ZM31.8747 3.86726V7.37612C31.5801 7.43608 31.2877 7.50451 30.9976 7.5809C29.9638 6.4236 28.7846 5.43762 27.4973 4.64089C28.8888 4.13211 30.3661 3.86726 31.8747 3.86726ZM19.1253 5.46093C22.2915 5.46093 25.3661 6.61703 27.7573 8.82595C26.9682 9.23323 26.2115 9.70805 25.4953 10.2464C23.6424 8.85334 21.4773 7.85432 19.1253 7.37502V5.46093ZM15.938 16.6166V10.2419C22.968 10.2419 28.6873 15.9612 28.6873 22.9913C28.6873 24.7722 27.2167 26.2233 25.4162 26.1771C19.8175 26.0388 15.938 21.5907 15.938 16.6166ZM32.6715 34.9437H35.062V35.7406C35.062 38.8162 32.5598 41.3184 29.4842 41.3184H27.0937V40.5216C27.0937 37.446 29.5959 34.9437 32.6715 34.9437Z" fill="white"/>
</g>
<path d="M57.8516 21.4591H51.3935V25.5189H59.0216V28.6777H47.2869V11.6433H59.045V14.8138H51.3935V18.4056H57.8516V21.4591ZM67.3627 17.3058L70.1472 11.6433H74.8387L70.077 20.0903L74.9674 28.6777H70.2291L67.3627 22.9099L64.4963 28.6777H59.7697L64.6484 20.0903L59.8984 11.6433H64.5782L67.3627 17.3058ZM80.7346 22.8982V28.6777H76.6281V11.6433H83.4255C84.728 11.6433 85.8785 11.885 86.8768 12.3686C87.883 12.8444 88.6591 13.5269 89.205 14.416C89.7588 15.2974 90.0357 16.2997 90.0357 17.4228C90.0357 19.0841 89.439 20.414 88.2457 21.4123C87.0601 22.4029 85.43 22.8982 83.3553 22.8982H80.7346ZM80.7346 19.7276H83.4255C84.2211 19.7276 84.8255 19.5287 85.2389 19.1309C85.6601 18.7332 85.8707 18.1716 85.8707 17.4462C85.8707 16.6506 85.6562 16.015 85.2272 15.5392C84.7982 15.0634 84.2133 14.8216 83.4723 14.8138H80.7346V19.7276ZM96.657 25.5189H103.805V28.6777H92.5505V11.6433H96.657V25.5189ZM119.529 20.5115C119.529 22.1728 119.221 23.643 118.605 24.9222C117.989 26.2013 117.111 27.188 115.972 27.8822C114.841 28.5685 113.55 28.9117 112.1 28.9117C110.649 28.9117 109.362 28.5802 108.239 27.9173C107.116 27.2465 106.238 26.291 105.607 25.0509C104.983 23.8107 104.655 22.3873 104.624 20.7806V19.8212C104.624 18.1521 104.928 16.6818 105.536 15.4105C106.153 14.1313 107.03 13.1447 108.169 12.4505C109.315 11.7563 110.618 11.4093 112.076 11.4093C113.519 11.4093 114.806 11.7524 115.937 12.4388C117.068 13.1252 117.946 14.104 118.57 15.3754C119.201 16.6389 119.521 18.0897 119.529 19.7276V20.5115ZM115.352 19.7978C115.352 18.1053 115.068 16.8222 114.498 15.9487C113.937 15.0673 113.129 14.6266 112.076 14.6266C110.017 14.6266 108.929 16.171 108.812 19.2596L108.8 20.5115C108.8 22.1806 109.077 23.4637 109.631 24.3606C110.185 25.2576 111.008 25.7061 112.1 25.7061C113.137 25.7061 113.937 25.2654 114.498 24.384C115.06 23.5027 115.344 22.2352 115.352 20.5817V19.7978ZM128.291 22.6642H126.068V28.6777H121.962V11.6433H128.666C130.686 11.6433 132.265 12.0917 133.404 12.9887C134.543 13.8857 135.112 15.1531 135.112 16.791C135.112 17.9766 134.87 18.9593 134.387 19.7393C133.911 20.5193 133.162 21.1511 132.14 21.6346L135.697 28.5022V28.6777H131.298L128.291 22.6642ZM126.068 19.4936H128.666C129.446 19.4936 130.031 19.2908 130.421 18.8852C130.818 18.4719 131.017 17.8986 131.017 17.1654C131.017 16.4323 130.818 15.859 130.421 15.4456C130.023 15.0244 129.438 14.8138 128.666 14.8138H126.068V19.4936ZM148.472 21.4591H142.014V25.5189H149.642V28.6777H137.908V11.6433H149.666V14.8138H142.014V18.4056H148.472V21.4591Z" fill="#DD2242"/>
<path d="M51.6626 50.6777H47.5677V33.6433H51.6626V50.6777ZM69.0591 50.6777H64.976L58.939 40.078V50.6777H54.8325V33.6433H58.939L64.9643 44.243V33.6433H69.0591V50.6777ZM71.9717 50.6777V33.6433H77.4587C78.9641 33.6433 80.3173 33.9864 81.5185 34.6728C82.7196 35.3514 83.6556 36.3146 84.3264 37.5626C85.0049 38.8027 85.3481 40.195 85.3559 41.7393V42.5232C85.3559 44.0831 85.0244 45.4832 84.3615 46.7233C83.7063 47.9556 82.7781 48.9228 81.577 49.6248C80.3836 50.3189 79.0499 50.6699 77.5757 50.6777H71.9717ZM76.0782 36.8138V47.5189H77.5055C78.6833 47.5189 79.5881 47.1016 80.2198 46.267C80.8516 45.4247 81.1675 44.1767 81.1675 42.5232V41.7861C81.1675 40.1404 80.8516 38.9002 80.2198 38.0657C79.5881 37.2311 78.6677 36.8138 77.4587 36.8138H76.0782ZM102.203 42.5115C102.203 44.1728 101.894 45.643 101.278 46.9222C100.662 48.2013 99.7847 49.188 98.6459 49.8822C97.515 50.5685 96.2241 50.9117 94.7734 50.9117C93.3227 50.9117 92.0357 50.5802 90.9126 49.9173C89.7894 49.2465 88.9119 48.291 88.2802 47.0509C87.6562 45.8107 87.3286 44.3873 87.2974 42.7806V41.8212C87.2974 40.1521 87.6016 38.6818 88.21 37.4105C88.8261 36.1313 89.7036 35.1447 90.8424 34.4505C91.9889 33.7563 93.2915 33.4093 94.75 33.4093C96.1929 33.4093 97.4799 33.7524 98.6108 34.4388C99.7418 35.1252 100.619 36.104 101.243 37.3754C101.875 38.6389 102.195 40.0897 102.203 41.7276V42.5115ZM98.0259 41.7978C98.0259 40.1053 97.7412 38.8222 97.1718 37.9487C96.6102 37.0673 95.803 36.6266 94.75 36.6266C92.6909 36.6266 91.6028 38.171 91.4858 41.2596L91.4741 42.5115C91.4741 44.1806 91.751 45.4637 92.3048 46.3606C92.8586 47.2576 93.6814 47.7061 94.7734 47.7061C95.8108 47.7061 96.6102 47.2654 97.1718 46.384C97.7334 45.5027 98.0181 44.2352 98.0259 42.5817V41.7978ZM118.862 50.6777H114.779L108.742 40.078V50.6777H104.635V33.6433H108.742L114.767 44.243V33.6433H118.862V50.6777ZM132.339 43.4591H125.881V47.5189H133.509V50.6777H121.775V33.6433H133.533V36.8138H125.881V40.4056H132.339V43.4591ZM144.284 46.15C144.284 45.5495 144.069 45.0815 143.64 44.7461C143.219 44.4107 142.474 44.0636 141.406 43.7048C140.337 43.346 139.464 42.999 138.785 42.6636C136.578 41.5794 135.474 40.0897 135.474 38.1944C135.474 37.2506 135.747 36.4199 136.293 35.7024C136.847 34.977 137.627 34.4154 138.633 34.0176C139.639 33.6121 140.77 33.4093 142.026 33.4093C143.25 33.4093 144.346 33.6277 145.313 34.0644C146.288 34.5012 147.045 35.1252 147.583 35.9364C148.121 36.7397 148.39 37.6601 148.39 38.6974H144.296C144.296 38.0033 144.081 37.4651 143.652 37.0829C143.231 36.7007 142.658 36.5096 141.932 36.5096C141.199 36.5096 140.618 36.6734 140.189 37.001C139.768 37.3208 139.557 37.7303 139.557 38.2295C139.557 38.6662 139.791 39.064 140.259 39.4228C140.727 39.7738 141.55 40.1404 142.728 40.5226C143.906 40.8969 144.873 41.3025 145.629 41.7393C147.47 42.8001 148.39 44.2625 148.39 46.1266C148.39 47.6164 147.829 48.7863 146.706 49.6365C145.583 50.4866 144.042 50.9117 142.084 50.9117C140.704 50.9117 139.452 50.666 138.329 50.1747C137.213 49.6755 136.371 48.9969 135.802 48.1389C135.24 47.2732 134.959 46.2787 134.959 45.1556H139.078C139.078 46.0681 139.312 46.7428 139.78 47.1796C140.255 47.6086 141.024 47.8231 142.084 47.8231C142.763 47.8231 143.297 47.6788 143.687 47.3902C144.085 47.0938 144.284 46.6804 144.284 46.15ZM155.187 50.6777H151.092V33.6433H155.187V50.6777ZM168.243 47.4955H162.616L161.633 50.6777H157.246L163.493 33.6433H167.354L173.648 50.6777H169.238L168.243 47.4955ZM163.599 44.3249H167.26L165.424 38.4167L163.599 44.3249Z" fill="white"/>
<defs>
<clipPath id="clip0_28_4550">
<rect width="51" height="51" fill="white" transform="translate(0 0.677246)"/>
</clipPath>
</defs>
</svg>
